<svg xmlns="http://www.w3.org/2000/svg" viewBox="0 0 800 420"><rect width="800" height="420" fill="#142f38"/><g fill="#d7a563"><circle cx="235" cy="165" r="60"/><circle cx="565" cy="165" r="60"/></g><path d="M125 410q30-175 110-175t110 175M455 410q30-175 110-175t110 175" fill="#294d55"/><path d="M305 85h190q35 0 35 35v70q0 35-35 35h-70l-45 45 8-45h-83q-35 0-35-35v-70q0-35 35-35z" fill="#f2e8d6"/><path d="M325 135h150M325 170h110" stroke="#9b6a3d" stroke-width="12" stroke-linecap="round"/><circle cx="400" cy="350" r="145" fill="none" stroke="#d7a563" opacity=".2" stroke-width="3"/></svg>