<svg xmlns="http://www.w3.org/2000/svg" viewBox="0 0 800 500"><defs><linearGradient id="bg" x2="0" y2="1"><stop stop-color="#f7f1e7"/><stop offset="1" stop-color="#e9dfd0"/><linearGradient id="light" x2="0" y2="1"><stop stop-color="#e6bd78" stop-opacity=".8"/><stop offset="1" stop-color="#e6bd78" stop-opacity="0"/></linearGradient></defs><rect width="800" height="500" fill="url(#bg)"/><path d="M0 0h150c15 115 2 220-70 330L0 365zM800 0H650c-15 115-2 220 70 330l80 35z" fill="#173945"/><path d="M28 0h85c5 95-6 190-70 300L0 325V0zm744 0h-85c-5 95 6 190 70 300l43 25V0z" fill="#7c3438" opacity=".75"/><path d="M335 0h130l105 340H230z" fill="url(#light)"/><ellipse cx="400" cy="398" rx="275" ry="55" fill="#d7ad6d" opacity=".28"/><rect x="250" y="342" width="300" height="18" rx="9" fill="#173945"/><g transform="translate(275 290) rotate(-5)"><rect width="250" height="115" rx="8" fill="#fffdf8" stroke="#cbbca9" stroke-width="3"/><g stroke="#6e7d7d" stroke-width="6" stroke-linecap="round"><path d="M30 32h175M30 53h145M30 74h185"/></g></g><path d="M510 270l42 9-50 114-22 13 2-27z" fill="#b98a49"/><circle cx="541" cy="285" r="6" fill="#173945"/><path d="M110 430h580" stroke="#173945" stroke-opacity=".18" stroke-width="3"/></svg>